<?xml version="1.0" encoding="utf-8"?>
<svg version="1.1" id="Layer_1" xmlns="http://www.w3.org/2000/svg" xmlns:xlink="http://www.w3.org/1999/xlink" x="0px" y="0px"
	 viewBox="0 0 1920 204.8" style="enable-background:new 0 0 1920 204.8;" xml:space="preserve" preserveAspectRatio="none">
<style type="text/css">
	.st0{fill:#FFFFFF;}
</style>

<path class="st0" d="M0,288L40,250.7C80,213,160,139,240,122.7C320,107,400,149,480,138.7C560,128,640,64,720,80C800,96,880,192,960,197.3C1040,203,1120,117,1200,106.7C1280,96,1360,160,1400,192L1440,224L1440,320L1400,320C1360,320,1280,320,1200,320C1120,320,1040,320,960,320C880,320,800,320,720,320C640,320,560,320,480,320C400,320,320,320,240,320C160,320,80,320,40,320L0,320Z"></path>
</svg>