<?xml version="1.0" encoding="utf-8"?>
<svg version="1.1" id="Layer_1" xmlns="http://www.w3.org/2000/svg" xmlns:xlink="http://www.w3.org/1999/xlink" x="0px" y="0px"
	 viewBox="0 0 1920 204.8" style="enable-background:new 0 0 1920 204.8;" xml:space="preserve" preserveAspectRatio="none">
<style type="text/css">
	.st0{fill:#FFFFFF;}
</style>

<path class="st0" d="M0,192L48,165.3C96,139,192,85,288,101.3C384,117,480,203,576,202.7C672,203,768,117,864,85.3C960,53,1056,75,1152,117.3C1248,160,1344,224,1392,256L1440,288L1440,320L1392,320C1344,320,1248,320,1152,320C1056,320,960,320,864,320C768,320,672,320,576,320C480,320,384,320,288,320C192,320,96,320,48,320L0,320Z"></path>
</svg>

